<svg width="81" height="80" viewBox="0 0 81 80" fill="none" xmlns="http://www.w3.org/2000/svg">
<rect x="0.25" width="80" height="80" rx="40" fill="#4C2F81"/>
<path fillRule="evenodd" clip-rule="evenodd" d="M48.8493 51.4289L44.8477 47.4272L47.6772 44.5977L51.6789 48.5993L48.8493 51.4289Z" fill="white"/>
<path fillRule="evenodd" clip-rule="evenodd" d="M18.25 35.0081C18.25 25.6153 25.8643 18.001 35.2571 18.001C44.6498 18.001 52.2642 25.6153 52.2642 35.0081C52.2642 44.4008 44.6498 52.0151 35.2571 52.0151C25.8643 52.0151 18.25 44.4008 18.25 35.0081ZM35.2571 22.0026C28.0744 22.0026 22.2517 27.8254 22.2517 35.0081C22.2517 42.1909 28.0744 48.0135 35.2571 48.0135C42.4399 48.0135 48.2625 42.1909 48.2625 35.0081C48.2625 27.8254 42.4399 22.0026 35.2571 22.0026Z" fill="white"/>
<path fillRule="evenodd" clip-rule="evenodd" d="M49.9256 49.6756C51.4749 48.1264 53.9867 48.1264 55.5357 49.6756L60.6073 54.7471C62.1565 56.2962 62.1565 58.808 60.6073 60.3573C59.058 61.9065 56.5462 61.9065 54.9971 60.3573L49.9256 55.2857C48.3764 53.7367 48.3764 51.2249 49.9256 49.6756Z" fill="white"/>
</svg>
