<svg width="60" height="65" viewBox="0 0 60 65" fill="none" xmlns="http://www.w3.org/2000/svg">
<path fillRule="evenodd" clip-rule="evenodd" d="M22.4698 38.1551H37.529C38.0243 38.1551 38.425 38.5557 38.425 39.0511V64.0149C38.425 64.5103 38.0243 64.9109 37.529 64.9109H22.4698C21.9744 64.9109 21.5738 64.5103 21.5738 64.0149V39.0511C21.5738 38.5557 21.9757 38.1551 22.4698 38.1551ZM49.4547 5.87857V5.33585C49.4547 4.84049 49.8554 4.43985 50.3507 4.43985C50.8461 4.43985 51.2467 4.84049 51.2467 5.33585V5.87857C51.6704 6.01937 52.0506 6.25745 52.3603 6.56721C52.8749 7.08177 53.1923 7.79217 53.1923 8.57681C53.1923 9.07217 52.7917 9.47281 52.2963 9.47281C51.801 9.47281 51.4003 9.07217 51.4003 8.57681C51.4003 8.28753 51.2826 8.02513 51.0931 7.83441C50.9037 7.64369 50.6413 7.52721 50.3507 7.52721C50.0615 7.52721 49.7991 7.64497 49.6083 7.83441C49.5108 7.93182 49.4334 8.04755 49.3807 8.17495C49.3279 8.30236 49.3009 8.43893 49.3011 8.57681C49.3011 9.35121 49.9296 9.50097 50.5568 9.65073C51.8739 9.96433 53.1923 10.2779 53.1923 12.468C53.1923 13.2526 52.8736 13.963 52.3603 14.4776C52.0475 14.7903 51.6663 15.026 51.2467 15.1662V15.709C51.2467 16.2043 50.8461 16.605 50.3507 16.605C49.8554 16.605 49.4547 16.2043 49.4547 15.709V15.1662C49.0311 15.0254 48.6509 14.7874 48.3411 14.4776C47.8266 13.963 47.5091 13.2526 47.5091 12.468C47.5091 11.9726 47.9098 11.572 48.4051 11.572C48.9005 11.572 49.3011 11.9726 49.3011 12.468C49.3011 12.7573 49.4189 13.0197 49.6083 13.2104C49.8054 13.407 50.0724 13.5174 50.3507 13.5174C50.6291 13.5174 50.8961 13.407 51.0931 13.2104C51.191 13.1132 51.2685 12.9975 51.3212 12.87C51.374 12.7426 51.4009 12.6059 51.4003 12.468C51.4003 11.6936 50.7719 11.5438 50.1447 11.3941C48.8275 11.0805 47.5091 10.7669 47.5091 8.57681C47.5091 7.79217 47.8266 7.08177 48.3411 6.56721C48.6509 6.25745 49.0311 6.01937 49.4547 5.87857ZM50.3507 0.910889C47.6973 0.910889 45.2947 1.98609 43.5552 3.72561C41.8157 5.46513 40.7405 7.86769 40.7405 10.5211C40.7405 13.1746 41.8157 15.5771 43.5552 17.3166C45.2947 19.0562 47.6973 20.1314 50.3507 20.1314C53.0042 20.1314 55.4067 19.0562 57.1463 17.3166C58.8858 15.5771 59.961 13.1746 59.961 10.5211C59.961 7.86769 58.8858 5.46513 57.1463 3.72561C55.4067 1.98609 53.0042 0.910889 50.3507 0.910889ZM55.8791 4.99281C54.4647 3.57841 52.5101 2.70289 50.3507 2.70289C48.1914 2.70289 46.2368 3.57841 44.8224 4.99281C43.408 6.40721 42.5325 8.36177 42.5325 10.5211C42.5325 12.6805 43.408 14.635 44.8224 16.0494C46.2368 17.4638 48.1914 18.3394 50.3507 18.3394C52.5101 18.3394 54.4647 17.4638 55.8791 16.0494C57.2935 14.635 58.169 12.6805 58.169 10.5211C58.169 8.36177 57.2935 6.40721 55.8791 4.99281ZM29.104 19.2776V18.7349C29.104 18.2395 29.5047 17.8389 30 17.8389C30.4954 17.8389 30.896 18.2395 30.896 18.7349V19.2776C31.3197 19.4184 31.6999 19.6565 32.0096 19.9662C32.5242 20.4808 32.8416 21.1912 32.8416 21.9759C32.8416 22.4712 32.441 22.8719 31.9456 22.8719C31.4503 22.8719 31.0496 22.4712 31.0496 21.9759C31.0496 21.6866 30.9319 21.4242 30.7424 21.2334C30.553 21.0427 30.2906 20.9262 30 20.9262C29.7107 20.9262 29.4483 21.044 29.2576 21.2334C29.16 21.3309 29.0827 21.4466 29.0299 21.574C28.9772 21.7014 28.9502 21.838 28.9504 21.9759C28.9504 22.7502 29.5789 22.9 30.2061 23.0498C31.5232 23.3634 32.8416 23.677 32.8416 25.8671C32.8416 26.6517 32.5229 27.3621 32.0096 27.8766C31.6968 28.1893 31.3155 28.4251 30.896 28.5653V29.108C30.896 29.6034 30.4954 30.004 30 30.004C29.5047 30.004 29.104 29.6034 29.104 29.108V28.5653C28.6803 28.4245 28.3002 28.1864 27.9904 27.8766C27.4759 27.3621 27.1584 26.6517 27.1584 25.8671C27.1584 25.3717 27.5591 24.9711 28.0544 24.9711C28.5498 24.9711 28.9504 25.3717 28.9504 25.8671C28.9504 26.1563 29.0682 26.4187 29.2576 26.6095C29.4471 26.7989 29.7095 26.9166 30 26.9166C30.1379 26.9167 30.2744 26.8897 30.4018 26.837C30.5292 26.7842 30.6449 26.7069 30.7424 26.6095C30.8399 26.512 30.9172 26.3962 30.9699 26.2688C31.0226 26.1414 31.0497 26.0049 31.0496 25.8671C31.0496 25.0926 30.4211 24.9429 29.7939 24.7931C28.4768 24.4795 27.1584 24.1659 27.1584 21.9759C27.1584 21.1912 27.4759 20.4808 27.9904 19.9662C28.3002 19.6565 28.6803 19.4184 29.104 19.2776ZM30 14.3099C27.3466 14.3099 24.944 15.3851 23.2045 17.1246C21.465 18.8642 20.3898 21.2667 20.3898 23.9202C20.3898 26.5736 21.465 28.9762 23.2045 30.7157C24.944 32.4552 27.3466 33.5304 30 33.5304C32.6535 33.5304 35.056 32.4552 36.7955 30.7157C38.5351 28.9762 39.6103 26.5736 39.6103 23.9202C39.6103 21.2667 38.5351 18.8642 36.7955 17.1246C35.056 15.3864 32.6535 14.3099 30 14.3099ZM35.5283 18.3918C34.1139 16.9774 32.1594 16.1019 30 16.1019C27.8407 16.1019 25.8861 16.9774 24.4717 18.3918C23.0573 19.8062 22.1818 21.7608 22.1818 23.9202C22.1818 26.0795 23.0573 28.0341 24.4717 29.4485C25.8861 30.8629 27.8407 31.7384 30 31.7384C32.1594 31.7384 34.1139 30.8629 35.5283 29.4485C36.9427 28.0341 37.8183 26.0795 37.8183 23.9202C37.8183 21.7608 36.9427 19.8062 35.5283 18.3918ZM8.7533 9.37425V8.83153C8.7533 8.33617 9.15394 7.93553 9.6493 7.93553C10.1447 7.93553 10.5453 8.33617 10.5453 8.83153V9.37425C10.969 9.51505 11.3491 9.75313 11.6589 10.0629C12.1735 10.5774 12.4909 11.2878 12.4909 12.0725C12.4909 12.5678 12.0903 12.9685 11.5949 12.9685C11.0995 12.9685 10.6989 12.5678 10.6989 12.0725C10.6989 11.7832 10.5811 11.5208 10.3917 11.3301C10.1946 11.1335 9.92766 11.0231 9.6493 11.0231C9.37095 11.0231 9.10396 11.1335 8.9069 11.3301C8.80932 11.4275 8.73194 11.5432 8.67922 11.6706C8.6265 11.798 8.59948 11.9346 8.5997 12.0725C8.5997 12.8469 9.22818 12.9966 9.85538 13.1464C11.1725 13.46 12.4909 13.7736 12.4909 15.9637C12.4909 16.7483 12.1722 17.4587 11.6589 17.9733C11.346 18.286 10.9648 18.5217 10.5453 18.6619V19.2046C10.5453 19.7 10.1447 20.1006 9.6493 20.1006C9.15394 20.1006 8.7533 19.7 8.7533 19.2046V18.6619C8.32962 18.5211 7.94946 18.2831 7.6397 17.9733C7.12514 17.4587 6.8077 16.7483 6.8077 15.9637C6.8077 15.4683 7.20834 15.0677 7.7037 15.0677C8.19906 15.0677 8.5997 15.4683 8.5997 15.9637C8.5997 16.253 8.71746 16.5154 8.9069 16.7061C9.10396 16.9027 9.37095 17.0131 9.6493 17.0131C9.92766 17.0131 10.1946 16.9027 10.3917 16.7061C10.4893 16.6087 10.5667 16.493 10.6194 16.3655C10.6721 16.2381 10.6991 16.1016 10.6989 15.9637C10.6989 15.1893 10.0704 15.0395 9.44322 14.8898C8.1261 14.5762 6.8077 14.2626 6.8077 12.0725C6.8077 11.2878 7.12514 10.5774 7.6397 10.0629C7.94946 9.75313 8.32834 9.51505 8.7533 9.37425ZM9.6493 4.40657C6.99586 4.40657 4.5933 5.48177 2.85378 7.22129C1.11426 8.96081 0.0390625 11.3634 0.0390625 14.0168C0.0390625 16.6702 1.11426 19.0728 2.85378 20.8123C4.5933 22.5518 6.99586 23.6271 9.6493 23.6271C12.3027 23.6271 14.7053 22.5518 16.4448 20.8123C18.1843 19.0728 19.2595 16.6702 19.2595 14.0168C19.2595 11.3634 18.1843 8.96081 16.4448 7.22129C14.7053 5.48177 12.3027 4.40657 9.6493 4.40657ZM15.1776 8.48849C13.7632 7.07409 11.8087 6.19857 9.6493 6.19857C7.48994 6.19857 5.53538 7.07281 4.12098 8.48849C2.70658 9.90417 1.83106 11.8574 1.83106 14.0168C1.83106 16.1762 2.70658 18.1307 4.12098 19.5451C5.53538 20.9595 7.48994 21.8351 9.6493 21.8351C11.8087 21.8351 13.7632 20.9595 15.1776 19.5451C16.592 18.1307 17.4675 16.1762 17.4675 14.0168C17.4663 11.8574 16.592 9.90289 15.1776 8.48849ZM2.11906 28.0648H17.1783C17.6736 28.0648 18.0743 28.4655 18.0743 28.9608V64.0149C18.0743 64.5103 17.6736 64.9109 17.1783 64.9109H2.11906C1.6237 64.9109 1.22306 64.5103 1.22306 64.0149V28.9608C1.22306 28.4655 1.62498 28.0648 2.11906 28.0648ZM16.2835 29.8568H3.01506V63.1189H16.2823V29.8568H16.2835ZM57.881 64.9109H42.8205C42.3251 64.9109 41.9245 64.5103 41.9245 64.0149V26.5685C41.9245 26.0731 42.3251 25.6725 42.8205 25.6725H57.8797C58.3751 25.6725 58.7757 26.0731 58.7757 26.5685V64.0149C58.777 64.5103 58.3751 64.9109 57.881 64.9109ZM43.7165 63.1189H56.9837V27.4645H43.7165V63.1189ZM36.6343 39.9471H23.3658V63.1189H36.633V39.9471H36.6343Z" fill="#4C2F81"/>
</svg>
