<svg width="65" height="56" viewBox="0 0 65 56" fill="none" xmlns="http://www.w3.org/2000/svg">
<path d="M48.4005 30.0014H50.5338V32.1348H48.4005V30.0014ZM64.4111 21.4468C64.4083 24.2787 63.2828 26.994 61.2814 28.9974C59.2799 31.0009 56.5657 32.1291 53.7338 32.1348V30.0014C55.8586 30.001 57.9069 29.2085 59.4788 27.7788C61.0506 26.3491 62.0331 24.3849 62.2344 22.2696C62.4356 20.1544 61.8412 18.0401 60.5672 16.3396C59.2932 14.6391 57.4311 13.4746 55.3445 13.0734L54.5551 12.9241L54.4805 12.1241C54.2497 9.53478 53.0571 7.12589 51.1379 5.3725C49.2187 3.61912 46.7121 2.64851 44.1125 2.65211C42.1197 2.66337 40.1711 3.24093 38.4941 4.31742C36.817 5.39391 35.4805 6.92499 34.6405 8.73211L34.2458 9.58544L33.3498 9.30811C32.8966 9.15181 32.4212 9.06899 31.9418 9.06277C30.696 9.06249 29.501 9.55653 28.619 10.4365C27.7371 11.3164 27.2404 12.5103 27.2378 13.7561C27.2459 14.2571 27.3323 14.7538 27.4938 15.2281L27.7711 16.0494L27.0245 16.4761C25.6373 17.2716 24.5525 18.5039 23.9391 19.9806C23.3257 21.4574 23.2183 23.0956 23.6335 24.6398C24.0488 26.184 24.9635 27.5473 26.2348 28.5172C27.5062 29.4871 29.0628 30.009 30.6618 30.0014H46.2672V32.1348H45.9365L48.1551 36.4228C48.2315 36.5751 48.2716 36.743 48.2725 36.9134V55.3028H0.41114V36.9134C0.410473 36.7348 0.454473 36.5588 0.53914 36.4014L11.7071 15.7614C11.7987 15.5927 11.9344 15.4519 12.0997 15.3542C12.265 15.2565 12.4538 15.2056 12.6458 15.2068H25.0938C25.1471 15.1641 25.2005 15.1321 25.2538 15.0894C25.1579 14.6514 25.1079 14.2045 25.1045 13.7561C25.1067 11.9444 25.8282 10.2077 27.1102 8.92765C28.3923 7.64759 30.1301 6.92887 31.9418 6.92944C32.3359 6.92775 32.7292 6.96707 33.1151 7.04677C34.3718 4.74587 36.3182 2.89687 38.6805 1.75992C41.0428 0.622964 43.7022 0.255283 46.2843 0.70861C48.8665 1.16194 51.2416 2.41345 53.0754 4.28707C54.9092 6.16069 56.1094 8.5621 56.5071 11.1534C58.7721 11.7632 60.7733 13.1016 62.2018 14.9619C63.6304 16.8223 64.4068 19.1012 64.4111 21.4468ZM46.1391 46.6414H2.54447V53.1694H46.1391V46.6414ZM2.54447 37.9801V44.5081H46.1391V37.9801H2.54447ZM21.2538 22.7268C21.2455 20.7936 21.8505 18.9077 22.9818 17.3401H13.2858L3.26981 35.8468H45.4565L43.5365 32.1348H30.6618C28.1679 32.1308 25.7772 31.1384 24.0137 29.3749C22.2502 27.6114 21.2578 25.2207 21.2538 22.7268ZM41.0618 48.8388V50.9721H43.1951V48.8388H41.0618ZM41.0618 40.1774V42.3108H43.1951V40.1774H41.0618Z" fill="#4C2F81"/>
</svg>
