<svg width="58" height="54" viewBox="0 0 58 54" fill="none" xmlns="http://www.w3.org/2000/svg">
<path d="M18.4222 40.0109H3.82217C2.12217 40.0109 0.722168 38.6109 0.722168 36.9109V28.2109C0.722168 26.5109 2.12217 25.1109 3.82217 25.1109H18.4222C20.1222 25.1109 21.5222 26.5109 21.5222 28.2109V36.9109C21.5222 38.6109 20.1222 40.0109 18.4222 40.0109ZM18.4222 27.1109H3.82217C3.22217 27.1109 2.82217 27.6109 2.82217 28.1109V36.9109C2.82217 37.5109 3.32217 37.9109 3.82217 37.9109H18.4222C19.0222 37.9109 19.4222 37.4109 19.4222 36.9109V28.2109C19.4222 27.6109 18.9222 27.1109 18.4222 27.1109ZM28.9222 33.8109H27.8222C27.2222 33.8109 26.8222 33.3109 26.8222 32.8109C26.8222 32.3109 27.3222 31.8109 27.8222 31.8109H28.9222C29.5222 31.8109 29.9222 32.3109 29.9222 32.8109C29.9222 33.3109 29.4222 33.8109 28.9222 33.8109ZM43.6222 40.4109H27.8222C27.2222 40.4109 26.8222 39.9109 26.8222 39.4109C26.8222 38.9109 27.3222 38.4109 27.8222 38.4109H43.6222C44.2222 38.4109 44.6222 38.9109 44.6222 39.4109C44.6222 39.9109 44.1222 40.4109 43.6222 40.4109ZM43.6222 47.0109H1.22217C0.622168 47.0109 0.222168 46.5109 0.222168 46.0109C0.222168 45.5109 0.722168 45.0109 1.22217 45.0109H43.6222C44.2222 45.0109 44.6222 45.5109 44.6222 46.0109C44.6222 46.5109 44.1222 47.0109 43.6222 47.0109ZM43.6222 53.6109H1.22217C0.622168 53.6109 0.222168 53.1109 0.222168 52.6109C0.222168 52.1109 0.722168 51.6109 1.22217 51.6109H43.6222C44.2222 51.6109 44.6222 52.1109 44.6222 52.6109C44.6222 53.1109 44.1222 53.6109 43.6222 53.6109ZM42.2222 34.2109H40.6222C39.3222 34.2109 38.2222 33.2109 38.0222 32.0109L37.6222 29.5109C37.6222 29.3109 37.4222 29.2109 37.3222 29.1109C36.9222 29.0109 36.6222 28.8109 36.2222 28.7109C36.0222 28.6109 35.9222 28.6109 35.7222 28.7109L33.7222 30.2109C32.7222 30.9109 31.2222 30.8109 30.3222 29.9109L29.1222 28.7109C28.2222 27.8109 28.1222 26.4109 28.8222 25.3109L30.3222 23.3109C30.4222 23.1109 30.4222 22.9109 30.3222 22.8109C30.1222 22.5109 30.0222 22.1109 29.8222 21.7109C29.7222 21.5109 29.6222 21.4109 29.4222 21.4109L27.0222 21.0109C25.7222 20.8109 24.8222 19.7109 24.8222 18.4109V16.7109C24.8222 15.4109 25.7222 14.3109 27.0222 14.1109L29.4222 13.7109C29.6222 13.7109 29.7222 13.5109 29.8222 13.4109C29.9222 13.0109 30.1222 12.7109 30.3222 12.3109C30.4222 12.1109 30.4222 11.9109 30.3222 11.8109L28.8222 9.81089C28.0222 8.81089 28.2222 7.41089 29.0222 6.41089L30.2222 5.21089C31.1222 4.31089 32.6222 4.21089 33.6222 5.01089L35.5222 6.51089C35.7222 6.71089 35.9222 6.61089 36.0222 6.51089C36.4222 6.31089 36.7222 6.21089 37.1222 6.01089C37.3222 5.91089 37.4222 5.81089 37.5222 5.61089L37.9222 3.11089C38.2222 1.91089 39.3222 0.910889 40.6222 0.910889H42.2222C43.5222 0.910889 44.6222 1.91089 44.8222 3.11089L45.2222 5.61089C45.2222 5.81089 45.4222 5.91089 45.5222 6.01089C45.9222 6.11089 46.2222 6.31089 46.6222 6.41089C46.8222 6.51089 46.9222 6.51089 47.1222 6.41089L49.1222 4.91089C50.1222 4.11089 51.6222 4.31089 52.5222 5.21089L53.7222 6.41089C54.6222 7.31089 54.7222 8.71089 54.0222 9.81089L52.5222 11.8109C52.4222 12.0109 52.4222 12.2109 52.5222 12.3109C52.7222 12.6109 52.8222 13.0109 53.0222 13.4109C53.1222 13.6109 53.2222 13.7109 53.4222 13.7109L55.8222 14.1109C57.1222 14.3109 58.0222 15.4109 58.0222 16.7109V18.4109C58.0222 19.7109 57.1222 20.8109 55.8222 21.0109L53.4222 21.4109C53.2222 21.4109 53.1222 21.6109 53.0222 21.7109C52.9222 22.1109 52.7222 22.4109 52.6222 22.8109C52.5222 23.0109 52.5222 23.2109 52.6222 23.4109L54.1222 25.4109C54.8222 26.4109 54.7222 27.8109 53.9222 28.8109L52.4222 29.9109C51.5222 30.8109 50.0222 30.9109 49.0222 30.1109L47.1222 28.6109C46.9222 28.4109 46.7222 28.5109 46.6222 28.6109C46.2222 28.8109 45.9222 28.9109 45.5222 29.1109C45.3222 29.2109 45.2222 29.3109 45.2222 29.5109L44.8222 32.0109C44.6222 33.2109 43.5222 34.2109 42.2222 34.2109ZM35.9222 26.5109C36.3222 26.5109 36.7222 26.6109 37.0222 26.8109C37.3222 26.9109 37.6222 27.1109 37.9222 27.2109C38.8222 27.5109 39.4222 28.3109 39.6222 29.2109L40.0222 31.7109C40.0222 32.0109 40.3222 32.2109 40.5222 32.2109H42.1222C42.4222 32.2109 42.6222 32.0109 42.6222 31.8109L43.0222 29.3109C43.1222 28.4109 43.8222 27.6109 44.7222 27.3109C45.0222 27.2109 45.3222 27.1109 45.6222 26.9109C46.4222 26.5109 47.5222 26.6109 48.3222 27.2109L50.3222 28.7109C50.6222 28.9109 50.8222 28.8109 51.0222 28.6109L52.2222 27.4109C52.4222 27.2109 52.4222 26.9109 52.2222 26.7109L50.7222 24.7109C50.1222 23.9109 50.0222 22.9109 50.4222 22.1109C50.5222 21.8109 50.7222 21.5109 50.8222 21.2109C51.1222 20.3109 51.9222 19.6109 52.8222 19.5109L55.2222 19.1109C55.5222 19.1109 55.6222 18.8109 55.6222 18.6109V16.9109C55.6222 16.6109 55.4222 16.4109 55.2222 16.4109L52.8222 16.0109C51.9222 15.9109 51.1222 15.2109 50.8222 14.3109C50.7222 14.0109 50.6222 13.7109 50.4222 13.4109C50.0222 12.5109 50.1222 11.5109 50.6222 10.7109L52.1222 8.71089C52.3222 8.51089 52.2222 8.21089 52.1222 8.01089L50.9222 6.81089C50.8222 6.71089 50.6222 6.61089 50.5222 6.61089C50.4222 6.61089 50.3222 6.61089 50.2222 6.71089L48.3222 8.21089C47.6222 8.81089 46.5222 8.91089 45.6222 8.51089C45.3222 8.41089 45.0222 8.21089 44.7222 8.11089C43.8222 7.81089 43.2222 7.01089 43.0222 6.11089L42.6222 3.61089C42.6222 3.31089 42.3222 3.11089 42.1222 3.11089H40.5222C40.2222 3.11089 40.0222 3.31089 40.0222 3.51089L39.7222 5.91089C39.6222 6.81089 38.9222 7.61089 38.0222 7.91089C37.7222 8.01089 37.4222 8.11089 37.1222 8.31089C36.3222 8.71089 35.2222 8.61089 34.4222 8.01089L32.4222 6.51089C32.1222 6.21089 31.9222 6.41089 31.7222 6.61089L30.5222 7.81089C30.3222 8.01089 30.3222 8.31089 30.5222 8.51089L32.0222 10.5109C32.5222 11.3109 32.6222 12.3109 32.2222 13.1109C32.1222 13.4109 31.9222 13.7109 31.8222 14.0109C31.5222 14.9109 30.7222 15.6109 29.8222 15.7109L27.4222 16.1109C27.1222 16.1109 27.0222 16.4109 27.0222 16.6109V18.3109C27.0222 18.6109 27.2222 18.8109 27.4222 18.8109L29.8222 19.2109C30.7222 19.3109 31.5222 20.0109 31.8222 20.9109C31.9222 21.2109 32.0222 21.5109 32.2222 21.8109C32.6222 22.7109 32.5222 23.7109 31.9222 24.5109L30.4222 26.5109C30.2222 26.7109 30.3222 27.0109 30.4222 27.2109L31.6222 28.4109C31.8222 28.6109 32.0222 28.7109 32.3222 28.5109L34.3222 27.0109C34.8222 26.7109 35.4222 26.5109 35.9222 26.5109Z" fill="#4C2F81"/>
</svg>
